<svg role="img" aria-label="Chrome DevTools" xmlns="http://www.w3.org/2000/svg" xmlns:xlink="http://www.w3.org/1999/xlink" fill="none" viewBox="0 0 1522 1522">
  <style>
    .svg-chrome-dev-tools-e{fill:#fff}
    .svg-chrome-dev-tools-a{stroke:#fff}
    .svg-chrome-dev-tools-b{stop-color:#fff}
    .svg-chrome-dev-tools-c{stop-color:#1a237e}
    .svg-chrome-dev-tools-d{stop-opacity:0}
    .svg-chrome-dev-tools-f{stop-opacity:.12}
  </style>
  <rect id="svg-chrome-dev-tools-d" width="1520" height="1520" rx="120"/>
  <radialGradient id="svg-chrome-dev-tools-f" cx="15%" cy="14%" r="100%">
    <stop class="svg-chrome-dev-tools-b svg-chrome-dev-tools-f" offset="0"/>
    <stop class="svg-chrome-dev-tools-b svg-chrome-dev-tools-d" offset="1"/>
  </radialGradient>
  <radialGradient id="svg-chrome-dev-tools-g" cx="-.2%" cy=".1%" r="136%">
    <stop class="svg-chrome-dev-tools-c" offset="0" stop-opacity=".2"/>
    <stop class="svg-chrome-dev-tools-c svg-chrome-dev-tools-d" offset="1"/>
  </radialGradient>
  <radialGradient id="svg-chrome-dev-tools-h" cx="85%" cy="13%" r="154%">
    <stop class="svg-chrome-dev-tools-c svg-chrome-dev-tools-f" offset="0"/>
    <stop class="svg-chrome-dev-tools-c svg-chrome-dev-tools-d" offset="1"/>
  </radialGradient>
  <radialGradient id="svg-chrome-dev-tools-i" cx="41%" cy="0" r="57%">
    <stop class="svg-chrome-dev-tools-c" offset="0" stop-opacity=".15"/>
    <stop class="svg-chrome-dev-tools-c svg-chrome-dev-tools-d" offset="1"/>
  </radialGradient>
  <path id="svg-chrome-dev-tools-a" d="M761 1361a600 600 0 100-1200 600 600 0 000 1200z"/>
  <mask id="svg-chrome-dev-tools-j" width="120" height="120" x="0" y="0" class="svg-chrome-dev-tools-e">
    <use xlink:href="#svg-chrome-dev-tools-a"/>
  </mask>
  <circle id="svg-chrome-dev-tools-b" cx="761" cy="761" r="280"/>
  <mask id="svg-chrome-dev-tools-k" width="56" height="56" x="0" y="0" class="svg-chrome-dev-tools-e">
    <use xlink:href="#svg-chrome-dev-tools-b"/>
  </mask>
  <circle id="svg-chrome-dev-tools-c" cx="761" cy="761" r="200"/>
  <mask id="svg-chrome-dev-tools-l" width="40" height="40" x="0" y="0" class="svg-chrome-dev-tools-e">
    <use xlink:href="#svg-chrome-dev-tools-c"/>
  </mask>
  <use fill="#2879ff" xlink:href="#svg-chrome-dev-tools-d"/>
  <g stroke-opacity=".2" stroke-width="5" class="svg-chrome-dev-tools-a" xlink:href="#svg-chrome-dev-tools-d">
    <path d="M-199-199l1920 1920m0-1920L-199 1721M1038.5-199v1920m-555-1920v1920M1721 1038.5H-199m1920-555H-199"/>
    <circle cx="761" cy="761" r="390"/>
    <path d="M-199 761h1920M761-199v1920"/>
  </g>
  <circle cx="761" cy="761" r="600" fill="url(#svg-chrome-dev-tools-f)"/>
  <path d="M1400 0H120C54 0 0 54 0 120v10C0 64 54 10 120 10h1280c66 0 120 54 120 120v-10c0-66-54-120-120-120z" class="svg-chrome-dev-tools-e" opacity=".2"/>
  <path fill="#000" d="M1401 1511H121c-66 0-120-54-120-120v10c0 66 54 120 120 120h1280c66 0 120-54 120-120v-10c0 66-54 120-120 120z" opacity=".1"/>
  <path fill="url(#svg-chrome-dev-tools-g)" d="M495.9 675.8L251 431l267.2 458.3a273.7 273.7 0 01-22.4-213.5z"/>
  <path fill="url(#svg-chrome-dev-tools-h)" d="M820.7 1031L731 1365.6 996.6 901a274.2 274.2 0 01-176 130z"/>
  <path fill="url(#svg-chrome-dev-tools-i)" d="M962 575.3l334.2-89.3H759.7A273.7 273.7 0 10962 575.3z"/>
  <g stroke-width="40" class="svg-chrome-dev-tools-a">
    <use mask="url(#svg-chrome-dev-tools-j)" xlink:href="#svg-chrome-dev-tools-a"/>
    <use mask="url(#svg-chrome-dev-tools-k)" xlink:href="#svg-chrome-dev-tools-b"/>
    <use mask="url(#svg-chrome-dev-tools-l)" xlink:href="#svg-chrome-dev-tools-c"/>
  </g>
  <path d="M761 481h530v20H761zm242.5 420l-265 459-17.3-10 265-459zm-485 0l-265-459 17.3-10 265 459z" class="svg-chrome-dev-tools-e"/>
</svg>